<?xml version="1.0" encoding="utf-8"?>
<!-- Generator: Adobe Illustrator 17.1.0, SVG Export Plug-In . SVG Version: 6.00 Build 0)  -->
<!DOCTYPE svg PUBLIC "-//W3C//DTD SVG 1.1//EN" "http://www.w3.org/Graphics/SVG/1.1/DTD/svg11.dtd">
<svg version="1.1" id="Layer_1" xmlns="http://www.w3.org/2000/svg" xmlns:xlink="http://www.w3.org/1999/xlink" x="0px" y="0px"
	 viewBox="0 0 200 50" enable-background="new 0 0 200 50" xml:space="preserve">
<g>
	<path fill="#E10000" d="M5.1,23.8h12.6v-5.1h2.8v12.6h-2.8v-5.2H5.1v5.2H2.3V18.7h2.8V23.8z"/>
	<path fill="#E10000" d="M27.6,31.3h-2.8V18.7h2.8V31.3z"/>
	<path fill="#E10000" d="M49.5,18.7V21h-8v10.3h-2.8V21h-8v-2.3H49.5z"/>
	<path fill="#E10000" d="M60.9,31.6c-3.9,0-6.5-0.7-8-2.2c-1.1-1.1-1.6-2.5-1.6-4.3c0-1.8,0.6-3.2,1.6-4.3c1.5-1.5,4.1-2.2,8-2.2
		c3.2,0,5.8,0.5,7.7,1.6v2.6c-1-0.6-2.1-1-3.4-1.4c-1.3-0.3-2.8-0.6-4.2-0.6c-2.9,0-4.9,0.5-5.9,1.4c-0.7,0.7-1,1.6-1,2.9
		c0,1.2,0.3,2.1,1,2.8c1,1,2.9,1.5,5.8,1.5c1.5,0,2.9-0.2,4.2-0.5c1.3-0.3,2.5-0.8,3.4-1.3V30C66.7,31.1,64.1,31.6,60.9,31.6z"/>
	<path fill="#E10000" d="M81.7,18.4c4,0,6.8,0.8,8.2,2.2c1.1,1.1,1.6,2.6,1.6,4.4c0,1.8-0.6,3.3-1.6,4.4c-1.5,1.5-4.2,2.2-8.2,2.2
		s-6.8-0.7-8.2-2.2c-1.1-1.1-1.7-2.6-1.7-4.4c0-1.8,0.6-3.3,1.6-4.4C74.9,19.1,77.7,18.4,81.7,18.4z M81.7,20.6c-3,0-5,0.5-6,1.5
		c-0.7,0.7-1.1,1.7-1.1,2.9c0,1.2,0.4,2.2,1.1,2.9c1,1,3,1.5,6,1.5s5-0.5,6-1.5c0.7-0.7,1-1.7,1-2.9c0-1.2-0.3-2.2-1.1-2.9
		C86.7,21.1,84.7,20.6,81.7,20.6z"/>
	<path fill="#E10000" d="M99.1,18.7l11.3,10.1V18.7h2.8v12.6h-3.9L97.8,21v10.3H95V18.7H99.1z"/>
	<path fill="#E10000" d="M125.8,20c2.4-1.1,5.3-1.6,8.8-1.6c3.3,0,5.4,0.5,6.4,1.5c0.6,0.6,0.9,1.4,0.9,2.4c0,0.8-0.3,1.4-0.8,2
		c-0.4,0.4-1.1,0.8-2,1.1c-0.9,0.3-2.5,0.6-5,1c-1.5,0.3-2.7,0.6-3.6,0.8c-0.9,0.3-1.5,0.6-1.9,1c-0.2,0.2-0.4,0.5-0.5,0.8h13.5v2.3
		h-16.9c0.1-1.8,0.7-3.2,1.6-4.2c1.3-1.3,3.6-2.2,7-2.8c1.9-0.3,3.2-0.6,3.9-0.8c0.7-0.2,1.2-0.4,1.4-0.6c0.2-0.2,0.3-0.4,0.3-0.8
		c0-0.3-0.1-0.6-0.3-0.8c-0.6-0.6-2-0.8-4.2-0.8c-3.1,0-6,0.6-8.8,1.8V20H125.8z"/>
	<path fill="#E10000" d="M164.2,25c0,1.8-0.6,3.3-1.7,4.4c-1.5,1.5-4.2,2.2-8,2.2s-6.6-0.8-8.1-2.3c-1.1-1.1-1.7-2.6-1.7-4.4
		c0-1.8,0.6-3.3,1.7-4.4c1.5-1.5,4.2-2.2,8.1-2.2c3.9,0,6.6,0.8,8,2.2C163.7,21.7,164.2,23.2,164.2,25z M161.4,25
		c0-1.3-0.3-2.3-1.1-3c-1-1-2.9-1.5-5.8-1.5c-2.9,0-4.9,0.5-5.9,1.4c-0.7,0.7-1.1,1.7-1.1,3c0,1.3,0.3,2.3,1.1,3
		c1,1,2.9,1.5,5.8,1.5c2.9,0,4.9-0.5,5.8-1.4C161,27.4,161.4,26.3,161.4,25z"/>
	<path fill="#E10000" d="M166.2,23.4v-2.6l4.3-2.1h3.3v12.6H171V21.1L166.2,23.4z"/>
	<path fill="#E10000" d="M188.8,18.7h4.3v7.4h4.6v2.1h-4.6v3h-2.7v-3h-13.6v-1L188.8,18.7z M182.1,26.2h8.3v-5.8L182.1,26.2z"/>
</g>
</svg>
