<?xml version="1.0" encoding="utf-8"?>
<!-- Generator: Adobe Illustrator 17.1.0, SVG Export Plug-In . SVG Version: 6.00 Build 0)  -->
<!DOCTYPE svg PUBLIC "-//W3C//DTD SVG 1.1//EN" "http://www.w3.org/Graphics/SVG/1.1/DTD/svg11.dtd">
<svg version="1.1" id="Layer_1" xmlns="http://www.w3.org/2000/svg" xmlns:xlink="http://www.w3.org/1999/xlink" x="0px" y="0px"
	 viewBox="0 0 600 120.7" enable-background="new 0 0 600 120.7" xml:space="preserve">
<g display="none">
	<path display="inline" fill="#85A5E9" d="M22.1,77.8c-1.2-1.2-1.8-2.9-1.8-4.8c0-1.9,0.6-3.6,1.8-4.8c1.3-1.3,3.9-2.5,9-2.5
		c3.9,0,7.2,0.9,8.9,1.7v1.2c-2-1.1-5.4-1.9-8.9-1.9c-3,0-6.3,0.4-8,2.1c-1,1-1.5,2.4-1.5,4.1c0,1.7,0.5,3.1,1.5,4.1
		c1.7,1.7,5.1,2.2,8,2.2c3.5,0,6.9-0.8,8.9-1.9v1.2c-1.7,0.8-4.9,1.7-8.9,1.7C26,80.3,23.4,79.2,22.1,77.8z"/>
	<path display="inline" fill="#85A5E9" d="M53.5,73.2l8.8-7.2h1.7v0L54,74.2V80h-1.2v-5.8L42.9,66v0h1.7L53.5,73.2z"/>
	<path display="inline" fill="#85A5E9" d="M67.9,66h11.5c3.6,0,5.4,0.3,6.6,1.4c0.6,0.6,0.8,1.3,0.8,2.2c0,1.6-1,2.8-3.6,3.3
		c2.7,0.4,3.9,1.5,3.9,3.4c0,0.7-0.3,1.6-0.9,2.2C85,79.7,82.8,80,79.4,80H67.9V66z M79.3,67.1H69.1v5.3h10.4c3.4,0,4.7-0.4,5.4-1.2
		c0.4-0.4,0.6-0.9,0.6-1.5c0-0.6-0.1-1.1-0.6-1.6C84.1,67.3,82.6,67.1,79.3,67.1z M79.6,73.4H69.1V79h10.3c3.2,0,4.8-0.2,5.7-1.1
		c0.5-0.5,0.6-1.1,0.6-1.6c0-0.6-0.1-1.2-0.6-1.6C84.3,73.6,82,73.4,79.6,73.4z"/>
	<path display="inline" fill="#85A5E9" d="M110.1,72.4v1H93.8v5.5h16.6V80H92.6V66h17.8v1.1H93.8v5.3L110.1,72.4L110.1,72.4z"/>
	<path display="inline" fill="#85A5E9" d="M127.1,66c4.2,0,5.5,0.5,6.4,1.4c0.8,0.8,1.1,1.7,1.1,2.9s-0.3,2.1-1.1,2.9
		c-0.9,0.9-2.3,1.5-6.1,1.5l8.8,5.2V80h-1.9l-8.8-5.3H117V80h-1.2V66H127.1z M117,73.7h10c3.4,0,4.8-0.5,5.5-1.2
		c0.5-0.5,0.8-1.2,0.8-2.2c0-0.9-0.2-1.6-0.8-2.2c-0.7-0.7-2-1.1-5.5-1.1H117V73.7z"/>
	<path display="inline" fill="#85A5E9" d="M155.6,67.2l-6.9,12.8H147L138.7,66h1.4l7.7,13.3l7-13.2h1.3l7.5,13.2l7.4-13.3h1.4
		l-8,14.1h-1.7L155.6,67.2z"/>
	<path display="inline" fill="#85A5E9" d="M197.6,80h-1.4l-2.8-3.7h-14.2l-2.8,3.7H175l10.4-14.1h1.7L197.6,80z M179.9,75.2h12.7
		l-6.3-8.5L179.9,75.2z"/>
	<path display="inline" fill="#85A5E9" d="M213.3,66c4.2,0,5.5,0.5,6.4,1.4c0.8,0.8,1.1,1.7,1.1,2.9s-0.3,2.1-1.1,2.9
		c-0.9,0.9-2.3,1.5-6.1,1.5l8.8,5.2V80h-1.9l-8.8-5.3h-8.4V80H202V66H213.3z M203.2,73.7h10c3.4,0,4.8-0.5,5.5-1.2
		c0.5-0.5,0.8-1.2,0.8-2.2c0-0.9-0.2-1.6-0.8-2.2c-0.7-0.7-2-1.1-5.5-1.1h-10.1L203.2,73.7L203.2,73.7z"/>
	<path display="inline" fill="#85A5E9" d="M223.3,85.1l4.7-6.6h1.5l-4.9,6.6H223.3z"/>
	<path display="inline" fill="#85A5E9" d="M244.5,80V66h1.2v14H244.5z"/>
	<path display="inline" fill="#85A5E9" d="M270.9,78.9V66h1.2v14h-1.7l-16.6-13v13h-1.2V66h1.8L270.9,78.9z"/>
	<path display="inline" fill="#85A5E9" d="M306,72.4V66h1.2v14H306v-6.5h-16.9V80h-1.2V66h1.2v6.4H306z"/>
	<path display="inline" fill="#85A5E9" d="M334.2,80h-1.4l-2.8-3.7h-14.2L313,80h-1.4l10.4-14.1h1.7L334.2,80z M316.5,75.2h12.7
		l-6.3-8.5L316.5,75.2z"/>
	<path display="inline" fill="#85A5E9" d="M339.3,77.8c-1.2-1.2-1.8-2.9-1.8-4.8c0-1.9,0.6-3.6,1.8-4.8c1.3-1.3,3.9-2.5,9-2.5
		c3.9,0,7.2,0.9,8.9,1.7v1.2c-2-1.1-5.4-1.9-8.9-1.9c-3,0-6.3,0.4-8,2.1c-1,1-1.5,2.4-1.5,4.1c0,1.7,0.5,3.1,1.5,4.1
		c1.7,1.7,5.1,2.2,8,2.2c3.5,0,6.9-0.8,8.9-1.9v1.2c-1.7,0.8-4.9,1.7-8.9,1.7C343.1,80.3,340.6,79.2,339.3,77.8z"/>
	<path display="inline" fill="#85A5E9" d="M364,66v6.4h4.5l10.6-6.4h1.9v0l-11.5,6.9l11.7,7.1v0h-2l-10.8-6.5H364V80h-1.2V66H364z"
		/>
	<path display="inline" fill="#85A5E9" d="M409.9,67.2L403,80.1h-1.7L393,66h1.4l7.7,13.3l7-13.2h1.3l7.5,13.2l7.4-13.3h1.4l-8,14.1
		h-1.7L409.9,67.2z"/>
	<path display="inline" fill="#85A5E9" d="M448.9,72.4v1h-16.3v5.5h16.6V80h-17.8V66h17.8v1.1h-16.6v5.3L448.9,72.4L448.9,72.4z"/>
	<path display="inline" fill="#85A5E9" d="M482.6,67.1h-9.8V80h-1.2V67.1h-9.8V66h20.8V67.1z"/>
	<path display="inline" fill="#85A5E9" d="M498.3,66c4.2,0,5.5,0.5,6.4,1.4c0.8,0.8,1.1,1.7,1.1,2.9s-0.3,2.1-1.1,2.9
		c-0.9,0.9-2.3,1.5-6.1,1.5l8.8,5.2V80h-1.9l-8.8-5.3h-8.4V80H487V66H498.3z M488.3,73.7h10c3.4,0,4.8-0.5,5.5-1.2
		c0.5-0.5,0.8-1.2,0.8-2.2c0-0.9-0.2-1.6-0.8-2.2c-0.7-0.7-2-1.1-5.5-1.1h-10.1V73.7z"/>
	<path display="inline" fill="#85A5E9" d="M528.4,77.4c1-1,1.3-2.4,1.3-3.8V66h1.2v7.8c0,2-0.5,3.3-1.5,4.3
		c-1.2,1.2-3.4,2.2-8.2,2.2c-4.8,0-7-1-8.2-2.2c-1-1-1.5-2.3-1.5-4.3V66h1.2v7.6c0,1.5,0.2,2.8,1.3,3.8c1.1,1.1,3.1,1.9,7.2,1.9
		C525.2,79.3,527.2,78.5,528.4,77.4z"/>
	<path display="inline" fill="#85A5E9" d="M553,77.9c0.5-0.5,0.6-1.1,0.6-1.7c0-0.6-0.1-1.1-0.5-1.6c-0.6-0.6-1.8-1-7.6-1.2
		c-5.6-0.3-7.5-0.8-8.3-1.6c-0.5-0.5-0.8-1.3-0.8-2.1c0-0.9,0.2-1.7,0.9-2.3c1-1,3.1-1.7,7.7-1.7c3.8,0,6.9,0.7,8.8,1.3v1.1
		c-2.2-0.8-5.5-1.4-8.8-1.4c-4.4,0-6,0.5-6.8,1.3c-0.4,0.4-0.6,1-0.6,1.6c0,0.6,0.2,1.1,0.5,1.4c0.6,0.6,2.2,1,7.6,1.3
		c6.1,0.3,7.5,0.8,8.4,1.6c0.6,0.6,0.8,1.4,0.8,2.2c0,0.8-0.2,1.8-0.9,2.4c-0.8,0.8-2.5,1.7-8.2,1.7c-4.1,0-7.7-0.7-9.9-1.6v-1.1
		c2.2,0.9,6.2,1.7,10,1.7C550.9,79.3,552.4,78.5,553,77.9z"/>
	<path display="inline" fill="#85A5E9" d="M579.1,67.1h-9.8V80H568V67.1h-9.8V66h20.8V67.1z"/>
</g>
<g>
	<path fill="#E10000" d="M27.9,31.1h36.4V16.4h8.1v36.4h-8.1V37.7H27.9v15.1h-8.1V16.4h8.1V31.1z"/>
	<path fill="#E10000" d="M93.3,52.8h-8.1V16.4h8.1V52.8z"/>
	<path fill="#E10000" d="M156.7,16.4V23h-23.2v29.8h-8.1V23h-23.2v-6.6H156.7z"/>
	<path fill="#E10000" d="M189.9,53.6c-11.2,0-18.9-2.1-23.2-6.4c-3.2-3.2-4.7-7.3-4.7-12.6c0-5.2,1.6-9.4,4.7-12.6
		c4.3-4.3,12-6.4,23.2-6.4c9.4,0,16.8,1.5,22.3,4.6v7.5c-2.8-1.6-6.1-3-10-4c-3.9-1-8-1.6-12.2-1.6c-8.5,0-14.1,1.4-17,4.2
		c-1.9,1.9-2.9,4.7-2.9,8.3c0,3.5,1,6.2,3,8.2c2.9,2.9,8.5,4.3,16.8,4.3c4.3,0,8.4-0.5,12.3-1.5c3.9-1,7.3-2.2,10-3.7v7.1
		C206.7,52.1,199.2,53.6,189.9,53.6z"/>
	<path fill="#E10000" d="M250,15.4c11.6,0,19.6,2.2,23.9,6.5c3.2,3.2,4.7,7.4,4.7,12.7c0,5.3-1.6,9.6-4.7,12.7
		c-4.3,4.3-12.3,6.5-23.9,6.5c-11.6,0-19.6-2.1-23.9-6.4c-3.2-3.2-4.8-7.5-4.8-12.8c0-5.3,1.6-9.6,4.7-12.7
		C230.5,17.5,238.4,15.4,250,15.4z M250,21.7c-8.7,0-14.6,1.5-17.5,4.4c-2,2-3.1,4.9-3.1,8.5c0,3.5,1.1,6.4,3.2,8.5
		c2.9,2.9,8.7,4.4,17.4,4.4c8.7,0,14.6-1.5,17.5-4.4c2-2,3-4.8,3-8.5c0-3.5-1-6.3-3.1-8.4C264.5,23.2,258.7,21.7,250,21.7z"/>
	<path fill="#E10000" d="M300.6,16.4l32.7,29.4V16.4h8v36.4h-11.3l-33.3-29.9v29.9h-8V16.4H300.6z"/>
	<path fill="#E10000" d="M378.1,20c7.1-3.1,15.5-4.6,25.4-4.6c9.5,0,15.7,1.5,18.6,4.4c1.7,1.7,2.6,4.1,2.6,7c0,2.3-0.8,4.2-2.3,5.8
		c-1.3,1.3-3.2,2.4-5.7,3.1c-2.5,0.8-7.3,1.8-14.4,3c-4.4,0.8-7.8,1.6-10.3,2.4c-2.5,0.8-4.3,1.8-5.4,3c-0.7,0.7-1.2,1.5-1.5,2.2
		h39.2v6.6h-48.9c0.3-5.2,1.9-9.2,4.7-12.1c3.7-3.7,10.5-6.5,20.4-8.2c5.4-0.9,9.2-1.7,11.4-2.2c2.1-0.5,3.5-1.1,4.2-1.8
		c0.5-0.5,0.8-1.2,0.8-2.2c0-1-0.3-1.7-0.8-2.3c-1.6-1.6-5.7-2.4-12.3-2.4c-8.9,0-17.4,1.8-25.4,5.3V20z"/>
	<path fill="#E10000" d="M489.4,34.6c0,5.3-1.6,9.6-4.8,12.7c-4.3,4.3-12.1,6.5-23.3,6.5s-19-2.2-23.4-6.6
		c-3.2-3.2-4.8-7.4-4.8-12.7c0-5.3,1.6-9.5,4.8-12.7c4.3-4.3,12.1-6.5,23.4-6.5c11.2,0,19,2.2,23.3,6.5
		C487.8,25.1,489.4,29.3,489.4,34.6z M481.2,34.6c0-3.7-1-6.6-3.1-8.7c-2.8-2.8-8.5-4.3-16.8-4.3c-8.5,0-14.2,1.4-17,4.2
		c-2,2-3.1,5-3.1,8.8c0,3.7,1,6.6,3.1,8.6c2.9,2.9,8.5,4.3,16.9,4.3c8.5,0,14.1-1.4,16.9-4.2C480.2,41.4,481.2,38.4,481.2,34.6z"/>
	<path fill="#E10000" d="M495.2,30v-7.6l12.4-6.1h9.6v36.5h-8.1V23.2L495.2,30z"/>
	<path fill="#E10000" d="M560.7,16.4h12.5v21.5h13.4v6.1h-13.4v8.7h-7.9v-8.7H526v-2.9L560.7,16.4z M541.3,38h24V21.2L541.3,38z"/>
</g>
<g>
	<path fill="#85A5E9" d="M30.5,67l11,14.8H40L37,77.8H22.1l-2.9,3.9h-1.4l11-14.8H30.5z M29.6,67.7l-6.7,9h13.3L29.6,67.7z"/>
	<path fill="#85A5E9" d="M66.6,74.4c0,2-0.6,3.7-1.9,5c-1.6,1.6-4.6,2.4-9,2.4h-9.7V67.1h9.7c4.4,0,7.4,0.8,9,2.4
		C65.9,70.7,66.6,72.4,66.6,74.4z M47.2,80.6h8.4c4,0,6.7-0.7,8.1-2c1-1.1,1.6-2.5,1.6-4.2s-0.5-3.2-1.6-4.2c-1.3-1.3-4-2-8.1-2
		h-8.4V80.6z"/>
	<path fill="#85A5E9" d="M81.7,67l11,14.8h-1.5l-2.9-3.9H73.3l-2.9,3.9H69l11-14.8H81.7z M80.8,67.7l-6.7,9h13.3L80.8,67.7z"/>
	<path fill="#85A5E9" d="M97.1,67.1h11.7c2.1,0,3.6,0.1,4.6,0.4s1.8,0.7,2.3,1.2c0.7,0.7,1.1,1.7,1.1,3s-0.4,2.3-1.1,3
		c-0.6,0.6-1.3,1-2.4,1.2c-1,0.3-2.6,0.4-4.6,0.4H98.4v5.5h-1.3V67.1z M98.4,75.2h10.4c3.1,0,5.1-0.4,5.8-1.1
		c0.6-0.6,0.9-1.4,0.9-2.4c0-1-0.3-1.8-0.9-2.4c-0.4-0.4-1-0.7-1.9-0.9c-0.9-0.2-2.2-0.3-3.9-0.3H98.4V75.2z"/>
	<path fill="#85A5E9" d="M141.6,67.1v1.1h-10.3v13.6H130V68.2h-10.3v-1.1H141.6z"/>
	<path fill="#85A5E9" d="M186,67.1v1.1h-10.3v13.6h-1.3V68.2h-10.3v-1.1H186z"/>
	<path fill="#85A5E9" d="M200,66.6c4.7,0,7.9,0.9,9.6,2.6c1.3,1.3,1.9,3,1.9,5.2c0,2.2-0.6,3.9-1.9,5.2c-1.8,1.7-5,2.6-9.6,2.6
		c-4.7,0-7.9-0.9-9.6-2.6c-1.3-1.3-1.9-3-1.9-5.2c0-2.2,0.6-3.9,1.9-5.2C192.1,67.5,195.3,66.6,200,66.6z M200,67.7
		c-4.2,0-7.1,0.7-8.6,2.2c-1.1,1.1-1.6,2.5-1.6,4.5c0,1.9,0.5,3.3,1.6,4.5c1.5,1.5,4.3,2.2,8.6,2.2s7.1-0.7,8.6-2.2
		c1.1-1.1,1.6-2.6,1.6-4.5c0-1.9-0.5-3.4-1.6-4.5C207.1,68.5,204.2,67.7,200,67.7z"/>
	<path fill="#85A5E9" d="M256.8,67.1v1.1h-10.3v13.6h-1.3V68.2h-10.3v-1.1H256.8z"/>
	<path fill="#85A5E9" d="M262.6,73.8h17.7v-6.7h1.3v14.7h-1.3v-6.9h-17.7v6.9h-1.3V67.1h1.3V73.8z"/>
	<path fill="#85A5E9" d="M289.5,73.8h17.1v1.1h-17.1v5.8h17.4v1.1h-18.7V67.1h18.7v1.1h-17.4V73.8z"/>
	<path fill="#85A5E9" d="M334.4,67.1l17.4,13.6V67.1h1.3v14.7h-1.8l-17.5-13.6v13.6h-1.3V67.1H334.4z"/>
	<path fill="#85A5E9" d="M361,73.8h17.1v1.1H361v5.8h17.4v1.1h-18.7V67.1h18.7v1.1H361V73.8z"/>
	<path fill="#85A5E9" d="M407.1,81.8l-7.6-13.5l-7.2,13.5h-1.8l-8.7-14.8h1.5l8.1,14l7.4-13.9h1.4L408,81l7.8-14h1.4l-8.4,14.8
		H407.1z"/>
	<path fill="#85A5E9" d="M443.3,73.8h17.1v1.1h-17.1v5.8h17.4v1.1H442V67.1h18.7v1.1h-17.4V73.8z"/>
	<path fill="#85A5E9" d="M466.2,67.1H478c2.1,0,3.6,0.1,4.5,0.3c1,0.2,1.7,0.6,2.2,1.1c0.8,0.8,1.1,1.8,1.1,3.1c0,1.3-0.4,2.3-1.1,3
		c-0.5,0.5-1.2,0.9-2.2,1.2c-1,0.3-2.4,0.4-4.3,0.4l9.3,5.5v0.1h-2l-9.3-5.5h-8.8v5.5h-1.3V67.1z M467.5,68.2v7H478
		c1.7,0,3-0.1,3.9-0.3s1.5-0.5,1.9-0.9c0.5-0.5,0.8-1.3,0.8-2.3c0-1-0.3-1.8-0.8-2.3c-0.4-0.4-1-0.7-1.9-0.9s-2.1-0.3-3.9-0.3H467.5
		z"/>
	<path fill="#85A5E9" d="M502.7,67l11,14.8h-1.5l-2.9-3.9h-14.9l-2.9,3.9h-1.4l11-14.8H502.7z M501.7,67.7l-6.7,9h13.3L501.7,67.7z"
		/>
	<path fill="#85A5E9" d="M548.5,66.6c4.7,0,7.9,0.9,9.6,2.6c1.3,1.3,1.9,3,1.9,5.2c0,2.2-0.6,3.9-1.9,5.2c-1.8,1.7-5,2.6-9.6,2.6
		c-4.7,0-7.9-0.9-9.6-2.6c-1.3-1.3-1.9-3-1.9-5.2c0-2.2,0.6-3.9,1.9-5.2C540.6,67.5,543.8,66.6,548.5,66.6z M548.5,67.7
		c-4.2,0-7.1,0.7-8.6,2.2c-1.1,1.1-1.6,2.5-1.6,4.5c0,1.9,0.5,3.3,1.6,4.5c1.5,1.5,4.3,2.2,8.6,2.2c4.2,0,7.1-0.7,8.6-2.2
		c1.1-1.1,1.6-2.6,1.6-4.5c0-1.9-0.5-3.4-1.6-4.5C555.6,68.5,552.7,67.7,548.5,67.7z"/>
	<path fill="#85A5E9" d="M566.7,74h16.7v1.1h-16.7v6.6h-1.3V67.1h18.2v1.1h-16.9V74z"/>
	<path fill="#85A5E9" d="M126.7,106.2c4,0,6.5-0.5,7.5-1.4c0.4-0.4,0.7-1,0.7-1.8c0-0.7-0.2-1.3-0.5-1.6c-0.3-0.3-1-0.6-2.1-0.8
		s-3-0.4-5.9-0.5c-2.8-0.1-4.9-0.3-6.1-0.6c-1.3-0.3-2.1-0.6-2.6-1.1c-0.5-0.5-0.8-1.3-0.8-2.2c0-1,0.3-1.8,0.9-2.5
		c1.2-1.2,3.9-1.7,8.1-1.7c3.5,0,6.6,0.5,9.2,1.4v1.2c-2.7-1-5.8-1.4-9.2-1.4c-3.9,0-6.2,0.4-7.1,1.3c-0.4,0.4-0.6,1-0.6,1.7
		c0,0.6,0.2,1.1,0.5,1.5c0.3,0.4,1.1,0.6,2.2,0.8c1.1,0.2,3,0.4,5.7,0.5c3,0.2,5.1,0.4,6.3,0.6c1.2,0.3,2,0.6,2.5,1.1
		c0.5,0.5,0.8,1.3,0.8,2.3c0,1.1-0.3,1.9-0.9,2.5c-0.5,0.5-1.4,1-2.7,1.3c-1.3,0.3-3.2,0.5-5.9,0.5c-4.2,0-7.7-0.6-10.4-1.7v-1.2
		c1.2,0.5,2.8,0.9,4.7,1.3C122.8,106,124.8,106.2,126.7,106.2z"/>
	<path fill="#85A5E9" d="M142.9,99H160v1.1h-17.1v5.8h17.4v1.1h-18.7V92.3h18.7v1.1h-17.4V99z"/>
	<path fill="#85A5E9" d="M175.8,107.3c-4.5,0-7.7-0.9-9.4-2.6c-1.3-1.3-1.9-3-1.9-5.1s0.6-3.8,1.9-5.1c1.7-1.7,4.9-2.6,9.4-2.6
		c1.9,0,3.7,0.2,5.3,0.5c1.6,0.4,3,0.8,4,1.3V95c-1.1-0.6-2.5-1.1-4.2-1.4s-3.4-0.6-5.1-0.6c-4.1,0-6.9,0.7-8.4,2.2
		c-1,1-1.5,2.5-1.5,4.3c0,1.9,0.5,3.3,1.5,4.3c1.5,1.5,4.3,2.3,8.4,2.3c1.8,0,3.5-0.2,5.2-0.5c1.7-0.4,3-0.8,4.1-1.4v1.2
		c-1,0.5-2.4,0.9-4,1.3C179.5,107.1,177.7,107.3,175.8,107.3z"/>
	<path fill="#85A5E9" d="M200.4,106.2c3.7,0,6.2-0.7,7.6-2c0.9-0.9,1.3-2.2,1.3-4v-7.9h1.3v8.2c0,2-0.5,3.5-1.6,4.6
		c-1.6,1.5-4.4,2.3-8.6,2.3c-4.2,0-7-0.8-8.6-2.3c-1.1-1.1-1.6-2.6-1.6-4.6v-8.2h1.3v7.9c0,1.8,0.4,3.1,1.3,4
		C194.1,105.5,196.7,106.2,200.4,106.2z"/>
	<path fill="#85A5E9" d="M216.7,92.3h11.9c2.1,0,3.6,0.1,4.5,0.3c1,0.2,1.7,0.6,2.2,1.1c0.8,0.8,1.1,1.8,1.1,3.1
		c0,1.3-0.4,2.3-1.1,3c-0.5,0.5-1.2,0.9-2.2,1.2c-1,0.3-2.4,0.4-4.3,0.4l9.3,5.5v0.1h-2l-9.3-5.5H218v5.5h-1.3V92.3z M218,93.4v7
		h10.5c1.7,0,3-0.1,3.9-0.3s1.5-0.5,1.9-0.9c0.5-0.5,0.8-1.3,0.8-2.3c0-1-0.3-1.8-0.8-2.3c-0.4-0.4-1-0.7-1.9-0.9
		c-0.8-0.2-2.1-0.3-3.9-0.3H218z"/>
	<path fill="#85A5E9" d="M244.3,107H243V92.3h1.3V107z"/>
	<path fill="#85A5E9" d="M271,92.3v1.1h-10.3V107h-1.3V93.4h-10.3v-1.1H271z"/>
	<path fill="#85A5E9" d="M274.7,92.3l9.2,7.6l9.2-7.6h1.8v0l-10.4,8.6v6.1h-1.3v-6.1l-10.4-8.6v0H274.7z"/>
	<path fill="#85A5E9" d="M338.8,92.3v1.1h-10.3V107h-1.3V93.4H317v-1.1H338.8z"/>
	<path fill="#85A5E9" d="M344.6,99h17.7v-6.7h1.3V107h-1.3v-6.9h-17.7v6.9h-1.3V92.3h1.3V99z"/>
	<path fill="#85A5E9" d="M370.3,92.3h11.9c2.1,0,3.6,0.1,4.5,0.3s1.7,0.6,2.2,1.1c0.8,0.8,1.1,1.8,1.1,3.1c0,1.3-0.4,2.3-1.1,3
		c-0.5,0.5-1.2,0.9-2.2,1.2c-1,0.3-2.4,0.4-4.3,0.4l9.3,5.5v0.1h-2l-9.3-5.5h-8.8v5.5h-1.3V92.3z M371.6,93.4v7h10.5
		c1.7,0,3-0.1,3.9-0.3s1.5-0.5,1.9-0.9c0.5-0.5,0.8-1.3,0.8-2.3c0-1-0.3-1.8-0.8-2.3c-0.4-0.4-1-0.7-1.9-0.9
		c-0.8-0.2-2.1-0.3-3.9-0.3H371.6z"/>
	<path fill="#85A5E9" d="M397.5,99h17.1v1.1h-17.1v5.8h17.4v1.1h-18.7V92.3h18.7v1.1h-17.4V99z"/>
	<path fill="#85A5E9" d="M430.9,92.2l11,14.8h-1.5l-2.9-3.9h-14.9l-2.9,3.9h-1.4l11-14.8H430.9z M430,92.9l-6.7,9h13.3L430,92.9z"/>
	<path fill="#85A5E9" d="M463.3,92.3v1.1h-10.3V107h-1.3V93.4h-10.3v-1.1H463.3z"/>
	<path fill="#85A5E9" d="M476.7,106.2c4,0,6.5-0.5,7.5-1.4c0.4-0.4,0.7-1,0.7-1.8c0-0.7-0.2-1.3-0.5-1.6c-0.3-0.3-1-0.6-2.1-0.8
		s-3-0.4-5.9-0.5c-2.8-0.1-4.9-0.3-6.1-0.6c-1.3-0.3-2.1-0.6-2.6-1.1c-0.5-0.5-0.8-1.3-0.8-2.2c0-1,0.3-1.8,0.9-2.5
		c1.2-1.2,3.9-1.7,8.1-1.7c3.5,0,6.6,0.5,9.2,1.4v1.2c-2.7-1-5.8-1.4-9.2-1.4c-3.9,0-6.2,0.4-7.1,1.3c-0.4,0.4-0.6,1-0.6,1.7
		c0,0.6,0.2,1.1,0.5,1.5c0.3,0.4,1.1,0.6,2.2,0.8s3,0.4,5.7,0.5c3,0.2,5.1,0.4,6.3,0.6c1.2,0.3,2,0.6,2.5,1.1
		c0.5,0.5,0.8,1.3,0.8,2.3c0,1.1-0.3,1.9-0.9,2.5c-0.5,0.5-1.4,1-2.7,1.3s-3.2,0.5-5.9,0.5c-4.2,0-7.7-0.6-10.4-1.7v-1.2
		c1.2,0.5,2.8,0.9,4.7,1.3C472.9,106,474.8,106.2,476.7,106.2z"/>
</g>
</svg>
