<?xml version="1.0" encoding="utf-8"?>
<!-- Generator: Adobe Illustrator 17.1.0, SVG Export Plug-In . SVG Version: 6.00 Build 0)  -->
<!DOCTYPE svg PUBLIC "-//W3C//DTD SVG 1.1//EN" "http://www.w3.org/Graphics/SVG/1.1/DTD/svg11.dtd">
<svg version="1.1" id="Layer_1" xmlns="http://www.w3.org/2000/svg" xmlns:xlink="http://www.w3.org/1999/xlink" x="0px" y="0px"
	 viewBox="-75 0 450 25" enable-background="new -75 0 450 25" xml:space="preserve">
<g>
	<path fill="#85A5E9" d="M-55,8.9l5.2,7h-0.7l-1.4-1.9H-59l-1.4,1.9H-61l5.2-7H-55z M-55.4,9.3l-3.2,4.3h6.3L-55.4,9.3z"/>
	<path fill="#85A5E9" d="M-37.8,12.4c0,1-0.3,1.8-0.9,2.4c-0.8,0.7-2.2,1.1-4.3,1.1h-4.6v-7h4.6c2.1,0,3.5,0.4,4.3,1.1
		C-38.1,10.7-37.8,11.5-37.8,12.4z M-47,15.4h4c1.9,0,3.2-0.3,3.8-1c0.5-0.5,0.8-1.2,0.8-2s-0.2-1.5-0.8-2c-0.6-0.6-1.9-1-3.8-1h-4
		V15.4z"/>
	<path fill="#85A5E9" d="M-30.6,8.9l5.2,7h-0.7l-1.4-1.9h-7.1l-1.4,1.9h-0.7l5.2-7H-30.6z M-31,9.3l-3.2,4.3h6.3L-31,9.3z"/>
	<path fill="#85A5E9" d="M-23.2,8.9h5.6c1,0,1.7,0.1,2.2,0.2c0.5,0.1,0.8,0.3,1.1,0.6c0.3,0.3,0.5,0.8,0.5,1.4s-0.2,1.1-0.5,1.4
		c-0.3,0.3-0.6,0.5-1.1,0.6c-0.5,0.1-1.2,0.2-2.2,0.2h-5v2.6h-0.6V8.9z M-22.6,12.8h5c1.5,0,2.4-0.2,2.8-0.5
		c0.3-0.3,0.4-0.7,0.4-1.1c0-0.5-0.1-0.8-0.4-1.1c-0.2-0.2-0.5-0.3-0.9-0.4c-0.4-0.1-1-0.1-1.9-0.1h-5V12.8z"/>
	<path fill="#85A5E9" d="M-2.1,8.9v0.5H-7v6.5h-0.6V9.5h-4.9V8.9H-2.1z"/>
	<path fill="#85A5E9" d="M14,8.9v0.5H9.1v6.5H8.5V9.5H3.6V8.9H14z"/>
	<path fill="#85A5E9" d="M20.7,8.7c2.2,0,3.8,0.4,4.6,1.2c0.6,0.6,0.9,1.4,0.9,2.5c0,1-0.3,1.9-0.9,2.5c-0.8,0.8-2.4,1.2-4.6,1.2
		c-2.2,0-3.8-0.4-4.6-1.2c-0.6-0.6-0.9-1.4-0.9-2.5c0-1,0.3-1.9,0.9-2.5C16.9,9.2,18.4,8.7,20.7,8.7z M20.7,9.3
		c-2,0-3.4,0.4-4.1,1.1c-0.5,0.5-0.8,1.2-0.8,2.1c0,0.9,0.3,1.6,0.8,2.1c0.7,0.7,2.1,1.1,4.1,1.1c2,0,3.4-0.4,4.1-1.1
		c0.5-0.5,0.8-1.2,0.8-2.1c0-0.9-0.3-1.6-0.8-2.1C24,9.6,22.7,9.3,20.7,9.3z"/>
	<path fill="#85A5E9" d="M42.6,8.9v0.5h-4.9v6.5h-0.6V9.5h-4.9V8.9H42.6z"/>
	<path fill="#85A5E9" d="M45.4,12.1h8.5V8.9h0.6v7h-0.6v-3.3h-8.5v3.3h-0.6v-7h0.6V12.1z"/>
	<path fill="#85A5E9" d="M58.2,12.1h8.1v0.5h-8.1v2.8h8.3v0.5h-8.9v-7h8.9v0.5h-8.3V12.1z"/>
	<path fill="#85A5E9" d="M74.5,8.9l8.3,6.5V8.9h0.6v7h-0.9l-8.3-6.5v6.5h-0.6v-7H74.5z"/>
	<path fill="#85A5E9" d="M87.1,12.1h8.1v0.5h-8.1v2.8h8.3v0.5h-8.9v-7h8.9v0.5h-8.3V12.1z"/>
	<path fill="#85A5E9" d="M109.1,16l-3.6-6.4L102,16h-0.8l-4.1-7h0.7l3.9,6.6l3.5-6.6h0.7l3.7,6.6l3.7-6.6h0.7l-4,7H109.1z"/>
	<path fill="#85A5E9" d="M121.2,12.1h8.1v0.5h-8.1v2.8h8.3v0.5h-8.9v-7h8.9v0.5h-8.3V12.1z"/>
	<path fill="#85A5E9" d="M132.1,8.9h5.6c1,0,1.7,0.1,2.2,0.2s0.8,0.3,1,0.5c0.4,0.4,0.5,0.8,0.5,1.5c0,0.6-0.2,1.1-0.5,1.5
		c-0.2,0.2-0.6,0.4-1,0.6c-0.5,0.1-1.1,0.2-2,0.2l4.4,2.6v0h-1l-4.4-2.6h-4.2v2.6h-0.6V8.9z M132.7,9.5v3.3h5c0.8,0,1.4,0,1.8-0.1
		s0.7-0.2,0.9-0.4c0.3-0.3,0.4-0.6,0.4-1.1s-0.1-0.8-0.4-1.1c-0.2-0.2-0.5-0.3-0.9-0.4c-0.4-0.1-1-0.1-1.8-0.1H132.7z"/>
	<path fill="#85A5E9" d="M149.5,8.9l5.2,7H154l-1.4-1.9h-7.1l-1.4,1.9h-0.7l5.2-7H149.5z M149,9.3l-3.2,4.3h6.3L149,9.3z"/>
	<path fill="#85A5E9" d="M166.2,8.7c2.2,0,3.8,0.4,4.6,1.2c0.6,0.6,0.9,1.4,0.9,2.5c0,1-0.3,1.9-0.9,2.5c-0.8,0.8-2.4,1.2-4.6,1.2
		c-2.2,0-3.8-0.4-4.6-1.2c-0.6-0.6-0.9-1.4-0.9-2.5c0-1,0.3-1.9,0.9-2.5C162.4,9.2,164,8.7,166.2,8.7z M166.2,9.3
		c-2,0-3.4,0.4-4.1,1.1c-0.5,0.5-0.8,1.2-0.8,2.1c0,0.9,0.3,1.6,0.8,2.1c0.7,0.7,2.1,1.1,4.1,1.1c2,0,3.4-0.4,4.1-1.1
		c0.5-0.5,0.8-1.2,0.8-2.1c0-0.9-0.3-1.6-0.8-2.1C169.6,9.6,168.2,9.3,166.2,9.3z"/>
	<path fill="#85A5E9" d="M174.9,12.3h7.9v0.5h-7.9v3.2h-0.6v-7h8.7v0.5h-8.1V12.3z"/>
	<path fill="#85A5E9" d="M194.4,15.6c1.9,0,3.1-0.2,3.6-0.7c0.2-0.2,0.3-0.5,0.3-0.8c0-0.3-0.1-0.6-0.3-0.8c-0.2-0.2-0.5-0.3-1-0.4
		c-0.5-0.1-1.4-0.2-2.8-0.2c-1.3-0.1-2.3-0.2-2.9-0.3c-0.6-0.1-1-0.3-1.2-0.5c-0.3-0.3-0.4-0.6-0.4-1c0-0.5,0.1-0.9,0.4-1.2
		c0.6-0.6,1.8-0.8,3.9-0.8c1.7,0,3.1,0.2,4.4,0.6V10c-1.3-0.5-2.8-0.7-4.4-0.7c-1.8,0-3,0.2-3.4,0.6c-0.2,0.2-0.3,0.5-0.3,0.8
		c0,0.3,0.1,0.5,0.3,0.7c0.2,0.2,0.5,0.3,1.1,0.4c0.5,0.1,1.5,0.2,2.7,0.2c1.4,0.1,2.4,0.2,3,0.3c0.6,0.1,0.9,0.3,1.2,0.5
		c0.3,0.3,0.4,0.6,0.4,1.1c0,0.5-0.1,0.9-0.4,1.2c-0.3,0.3-0.7,0.5-1.3,0.6c-0.6,0.2-1.5,0.2-2.8,0.2c-2,0-3.6-0.3-5-0.8v-0.6
		c0.6,0.2,1.3,0.4,2.2,0.6C192.6,15.5,193.5,15.6,194.4,15.6z"/>
	<path fill="#85A5E9" d="M202.2,12.1h8.1v0.5h-8.1v2.8h8.3v0.5h-8.9v-7h8.9v0.5h-8.3V12.1z"/>
	<path fill="#85A5E9" d="M217.8,16.1c-2.2,0-3.7-0.4-4.5-1.2c-0.6-0.6-0.9-1.4-0.9-2.4c0-1,0.3-1.8,0.9-2.4c0.8-0.8,2.3-1.2,4.5-1.2
		c0.9,0,1.7,0.1,2.5,0.3c0.8,0.2,1.4,0.4,1.9,0.6v0.6c-0.5-0.3-1.2-0.5-2-0.7c-0.8-0.2-1.6-0.3-2.5-0.3c-2,0-3.3,0.4-4,1.1
		c-0.5,0.5-0.7,1.2-0.7,2.1c0,0.9,0.2,1.6,0.7,2.1c0.7,0.7,2.1,1.1,4,1.1c0.8,0,1.7-0.1,2.5-0.3c0.8-0.2,1.5-0.4,2-0.7v0.6
		c-0.5,0.2-1.1,0.4-1.9,0.6C219.6,16,218.7,16.1,217.8,16.1z"/>
	<path fill="#85A5E9" d="M229.5,15.6c1.8,0,3-0.3,3.6-0.9c0.4-0.4,0.6-1.1,0.6-1.9V8.9h0.6v3.9c0,0.9-0.3,1.7-0.8,2.2
		c-0.7,0.7-2.1,1.1-4.1,1.1c-2,0-3.4-0.4-4.1-1.1c-0.5-0.5-0.8-1.2-0.8-2.2V8.9h0.6v3.8c0,0.8,0.2,1.5,0.6,1.9
		C226.6,15.3,227.8,15.6,229.5,15.6z"/>
	<path fill="#85A5E9" d="M237.3,8.9h5.6c1,0,1.7,0.1,2.2,0.2s0.8,0.3,1,0.5c0.4,0.4,0.5,0.8,0.5,1.5c0,0.6-0.2,1.1-0.5,1.5
		c-0.2,0.2-0.6,0.4-1,0.6c-0.5,0.1-1.1,0.2-2,0.2l4.4,2.6v0h-1l-4.4-2.6h-4.2v2.6h-0.6V8.9z M237.9,9.5v3.3h5c0.8,0,1.4,0,1.8-0.1
		s0.7-0.2,0.9-0.4c0.3-0.3,0.4-0.6,0.4-1.1s-0.1-0.8-0.4-1.1c-0.2-0.2-0.5-0.3-0.9-0.4c-0.4-0.1-1-0.1-1.8-0.1H237.9z"/>
	<path fill="#85A5E9" d="M250.4,15.9h-0.6v-7h0.6V15.9z"/>
	<path fill="#85A5E9" d="M263.2,8.9v0.5h-4.9v6.5h-0.6V9.5h-4.9V8.9H263.2z"/>
	<path fill="#85A5E9" d="M264.9,8.9l4.4,3.6l4.4-3.6h0.8v0l-5,4.1v2.9H269V13L264.1,9v0H264.9z"/>
	<path fill="#85A5E9" d="M290.4,8.9v0.5h-4.9v6.5h-0.6V9.5H280V8.9H290.4z"/>
	<path fill="#85A5E9" d="M293.1,12.1h8.4V8.9h0.6v7h-0.6v-3.3h-8.4v3.3h-0.6v-7h0.6V12.1z"/>
	<path fill="#85A5E9" d="M305.3,8.9h5.6c1,0,1.7,0.1,2.2,0.2s0.8,0.3,1,0.5c0.4,0.4,0.5,0.8,0.5,1.5c0,0.6-0.2,1.1-0.5,1.5
		c-0.2,0.2-0.6,0.4-1,0.6c-0.5,0.1-1.1,0.2-2,0.2l4.4,2.6v0h-1l-4.4-2.6H306v2.6h-0.6V8.9z M306,9.5v3.3h5c0.8,0,1.4,0,1.8-0.1
		s0.7-0.2,0.9-0.4c0.3-0.3,0.4-0.6,0.4-1.1s-0.1-0.8-0.4-1.1c-0.2-0.2-0.5-0.3-0.9-0.4c-0.4-0.1-1-0.1-1.8-0.1H306z"/>
	<path fill="#85A5E9" d="M318.3,12.1h8.1v0.5h-8.1v2.8h8.3v0.5h-8.9v-7h8.9v0.5h-8.3V12.1z"/>
	<path fill="#85A5E9" d="M334.2,8.9l5.2,7h-0.7l-1.4-1.9h-7.1l-1.4,1.9h-0.7l5.2-7H334.2z M333.8,9.3l-3.2,4.3h6.3L333.8,9.3z"/>
	<path fill="#85A5E9" d="M349.7,8.9v0.5h-4.9v6.5h-0.6V9.5h-4.9V8.9H349.7z"/>
	<path fill="#85A5E9" d="M356,15.6c1.9,0,3.1-0.2,3.6-0.7c0.2-0.2,0.3-0.5,0.3-0.8c0-0.3-0.1-0.6-0.3-0.8c-0.2-0.2-0.5-0.3-1-0.4
		c-0.5-0.1-1.4-0.2-2.8-0.2c-1.3-0.1-2.3-0.2-2.9-0.3c-0.6-0.1-1-0.3-1.2-0.5c-0.3-0.3-0.4-0.6-0.4-1c0-0.5,0.1-0.9,0.4-1.2
		c0.6-0.6,1.8-0.8,3.9-0.8c1.7,0,3.1,0.2,4.4,0.6V10c-1.3-0.5-2.8-0.7-4.4-0.7c-1.8,0-3,0.2-3.4,0.6c-0.2,0.2-0.3,0.5-0.3,0.8
		c0,0.3,0.1,0.5,0.3,0.7c0.2,0.2,0.5,0.3,1.1,0.4c0.5,0.1,1.5,0.2,2.7,0.2c1.4,0.1,2.4,0.2,3,0.3c0.6,0.1,0.9,0.3,1.2,0.5
		c0.3,0.3,0.4,0.6,0.4,1.1c0,0.5-0.1,0.9-0.4,1.2c-0.3,0.3-0.7,0.5-1.3,0.6c-0.6,0.2-1.5,0.2-2.8,0.2c-2,0-3.6-0.3-5-0.8v-0.6
		c0.6,0.2,1.3,0.4,2.2,0.6C354.2,15.5,355.1,15.6,356,15.6z"/>
</g>
</svg>
